PathFileType	4	(X/Y/Z)	C:\Users\Basilio\Documents\Thesis Gigler\squatting_fais\c3dfiles\058\SLS_front_pre5\markers_experimental.trc
DataRate	CameraRate	NumFrames	NumMarkers	Units	OrigDataRate	OrigDataStartFrame	OrigNumFrames
200.000000	200.000000	4	61	mm	200.000000	772	1236
Frame#	Time	FHD			LBHD			RBHD			C7			T10			CLAV			LSHO			LUUPA			LMUPA			LDUPA			LLEP			LMEP			LRAD			LUL			LRFIN			RSHO			RUPA1			RMUPA			RDUPA			RLEP			RMEP			RRAD			RUL			RUFIN			LASI			RASI			USACR			LSACR			RSACR			LTHI1			LTHI2			LTHI3			LTHI4			LLFC			LMFC			LTIB1			LTIB2			LTIB3			LTIB4			LLMAL			LMMAL			LHEE			LMT1			LMT2			LMT5			RTHI			RTHI2			RTHI3			RTHI4			RLFC			RMFC			RTIB1			RTIB2			RTIB3			RTIB4			RLMAL			RMMAL			RHEE			RMT1			RMT2			RMT5			
		X1	Y1	Z1	X2	Y2	Z2	X3	Y3	Z3	X4	Y4	Z4	X5	Y5	Z5	X6	Y6	Z6	X7	Y7	Z7	X8	Y8	Z8	X9	Y9	Z9	X10	Y10	Z10	X11	Y11	Z11	X12	Y12	Z12	X13	Y13	Z13	X14	Y14	Z14	X15	Y15	Z15	X16	Y16	Z16	X17	Y17	Z17	X18	Y18	Z18	X19	Y19	Z19	X20	Y20	Z20	X21	Y21	Z21	X22	Y22	Z22	X23	Y23	Z23	X24	Y24	Z24	X25	Y25	Z25	X26	Y26	Z26	X27	Y27	Z27	X28	Y28	Z28	X29	Y29	Z29	X30	Y30	Z30	X31	Y31	Z31	X32	Y32	Z32	X33	Y33	Z33	X34	Y34	Z34	X35	Y35	Z35	X36	Y36	Z36	X37	Y37	Z37	X38	Y38	Z38	X39	Y39	Z39	X40	Y40	Z40	X41	Y41	Z41	X42	Y42	Z42	X43	Y43	Z43	X44	Y44	Z44	X45	Y45	Z45	X46	Y46	Z46	X47	Y47	Z47	X48	Y48	Z48	X49	Y49	Z49	X50	Y50	Z50	X51	Y51	Z51	X52	Y52	Z52	X53	Y53	Z53	X54	Y54	Z54	X55	Y55	Z55	X56	Y56	Z56	X57	Y57	Z57	X58	Y58	Z58	X59	Y59	Z59	X60	Y60	Z60	X61	Y61	Z61	

773	3.86	-247.6302185058594	1761.0830078125	-612.8419799804689	-400.2558898925782	1695.679931640625	-682.7102661132814	-240.4571380615235	1771.1494140625	-754.8516845703126	-413.3348693847657	1567.250244140625	-703.9492187500001	-491.9395751953126	1272.863403320313	-698.6743774414064	-260.3255920410157	1499.512939453125	-689.2273559570314	-260.2857360839844	1558.974975585938	-839.420593261719	-118.5833129882813	1495.9267578125	-960.733093261719	-90.68257141113283	1529.976440429688	-934.4907836914065	-48.58423995971681	1493.141479492188	-957.0039062500002	27.07588577270509	1493.628051757813	-943.9505004882815	31.72866439819337	1435.140991210938	-914.8018798828127	297.4382934570313	1493.101440429688	-853.560974121094	299.2084350585938	1520.33154296875	-929.7927856445315	397.5820922851564	1516.456787109375	-853.4653320312502	-276.2136840820313	1555.921142578125	-538.8859252929689	-128.6289978027344	1466.814086914063	-424.9190979003907	-103.6914138793946	1503.949829101563	-448.3123474121095	-59.55902099609376	1473.2841796875	-423.9244079589845	8.117955207824709	1462.704467773438	-428.9938354492189	16.55943298339844	1405.811157226563	-480.8220520019532	279.9978942871094	1488.815551757813	-501.4085388183595	277.7312927246094	1499.917114257813	-418.3581542968751	372.3836669921876	1517.276489257813	-484.9341125488282	-360.2857666015626	1062.662231445313	-852.6527099609377	-337.6493530273438	1037.984375	-618.0079956054689	-529.5544433593751	1145.932739257813	-698.6099853515626	-544.3543701171876	1118.50048828125	-727.4414062500001	-533.7446899414064	1112.21533203125	-671.0927124023439	-305.1479187011719	831.785583496094	-934.9268188476565	-241.3670654296876	777.4902343750002	-929.2730712890627	-203.0218811035157	796.4605712890627	-902.1875610351565	-240.2381896972657	717.2533569335939	-920.9071044921877	-188.14892578125	632.9169921875001	-911.1875000000002	-163.2635192871094	634.0236206054689	-783.712341308594	-71.6648635864258	543.4502563476564	-877.4378051757815	-99.12104797363284	486.7107238769532	-934.4656372070315	-60.22973632812501	497.2657775878907	-912.3093872070315	-20.25662422180176	427.2025146484376	-890.0769042968752	23.24355697631836	225.0893859863282	-909.1182861328127	42.69873428344727	249.0981750488282	-820.7918090820315	-11.68451595306397	165.9529266357422	-853.3004150390627	191.5144348144532	257.4282226562501	-849.746520996094	192.5109405517579	262.2272644042969	-896.8071899414065	155.2436981201172	219.0271148681641	-946.417419433594	-397.8512268066407	824.118835449219	-554.2119750976564	-346.2160339355469	781.9768676757815	-555.5272827148439	-314.4418334960938	790.0481567382815	-557.8840332031251	-350.1324157714844	701.4586791992189	-580.3876342773439	-299.5238952636719	536.4890136718751	-611.1362915039064	-268.1218261718751	541.4514770507814	-741.7186279296876	-270.5128784179688	346.1800231933594	-717.2611694335939	-318.6292419433594	267.6067199707032	-657.9262084960939	-285.3643188476563	259.3006896972657	-691.6343383789064	-303.3802490234376	221.4420928955079	-731.6575317382814	-376.8318176269532	119.5998916625977	-698.0185546875001	-344.7084960937501	144.4967803955078	-784.529235839844	-444.5359497070314	106.5939865112305	-763.9712524414064	-236.0367584228516	59.00235748291017	-770.9685058593752	-230.6225585937501	60.52388381958009	-718.4522094726564	-282.5152893066407	31.17011260986329	-667.2349853515626	
774	3.865	-248.4057159423829	1762.756713867188	-612.6651000976564	-401.2031250000001	1697.142822265625	-682.4282226562501	-240.9893188476563	1772.86767578125	-754.7811279296876	-414.0222167968751	1568.717651367188	-703.8102416992189	-492.0819702148439	1274.108764648438	-698.3678588867189	-260.9803771972657	1501.031616210938	-689.2445068359376	-261.0824890136719	1560.32763671875	-839.399108886719	-119.1327590942383	1497.293701171875	-960.7303466796877	-91.18029022216798	1531.375732421875	-934.548767089844	-49.28133773803712	1494.414428710938	-956.907897949219	27.10791778564454	1494.665771484375	-944.7246704101565	30.93573951721192	1436.10791015625	-914.6616821289065	296.9242858886719	1493.877807617188	-853.3439941406252	298.7767639160157	1521.068969726563	-929.7183227539065	396.9745178222657	1517.04248046875	-853.3176879882815	-276.7695312500001	1557.22998046875	-538.5957641601564	-129.3240203857422	1467.975463867188	-424.6815795898439	-104.299301147461	1505.021728515625	-448.1006469726564	-60.12419891357423	1474.235229492188	-423.7792358398439	7.42904567718506	1463.98486328125	-428.8583984375001	16.00603866577149	1407.056762695313	-480.732391357422	279.4783325195313	1489.850952148438	-501.3916015625001	277.3974914550782	1500.782348632813	-418.2476196289064	371.6588134765626	1518.188354492188	-484.8245544433595	-360.0400085449219	1064.1064453125	-852.5371093750002	-337.0801696777344	1039.308349609375	-618.0435791015626	-529.4375610351564	1147.357299804688	-698.3316650390626	-544.1947021484376	1119.770874023438	-727.2911987304689	-533.3411865234376	1113.537231445313	-670.9741821289064	-305.4804992675782	832.9846801757815	-934.8091430664065	-241.6137847900391	778.5098876953127	-929.2214965820315	-203.1292419433594	797.8032836914065	-902.2249145507815	-240.5985412597657	718.2471313476564	-921.1672363281252	-188.8555603027344	633.7421875000001	-911.1774902343752	-164.0867462158203	634.4615478515626	-783.5887451171877	-72.32888793945314	544.0783081054689	-877.6181640625002	-100.0286331176758	487.3200988769532	-934.4797363281252	-61.82853317260744	498.0061645507814	-912.2095947265627	-21.33282279968262	427.925262451172	-890.074890136719	21.92344093322754	225.3164978027344	-909.222839355469	40.86364746093751	249.5431060791016	-820.7679443359377	-13.96095371246338	166.5397338867188	-853.3403930664065	190.007308959961	257.3438110351563	-849.8227539062502	190.9936676025391	262.2674255371094	-896.671325683594	153.6137847900391	219.0836334228516	-946.324401855469	-398.4495544433595	825.430603027344	-554.2608032226564	-346.6957702636719	782.992858886719	-555.7126464843751	-314.8401184082032	790.6318359375002	-558.1059570312501	-350.8926696777344	702.4522705078126	-580.3565063476564	-301.2912902832032	537.1530151367189	-611.0421142578126	-269.9597778320313	541.6491699218751	-741.3596801757814	-271.5279235839844	346.4465942382813	-716.9708862304689	-319.6882019042969	267.7456054687501	-657.6501464843751	-285.9595031738282	260.1373596191407	-691.6948242187501	-303.5899963378907	221.7176971435547	-731.4506835937501	-377.0325317382813	119.6154937744141	-697.8984375000001	-344.5693054199219	144.5679321289063	-784.3333129882815	-444.5521240234376	106.5545654296875	-763.9381103515626	-236.0884246826172	59.00007247924806	-770.895690917969	-230.5464324951172	60.67319869995119	-718.3491821289064	-282.4551696777344	31.19807815551759	-667.2459716796876	
775	3.87	-248.9492492675782	1764.107177734375	-612.8837890625001	-401.9402160644532	1698.932739257813	-682.2363281250001	-241.8860473632813	1774.514892578125	-754.7033081054689	-414.6080932617189	1570.128295898438	-703.7093505859376	-492.0227966308595	1275.231201171875	-698.1893920898439	-261.4238281250001	1502.8115234375	-689.1986694335939	-261.6300659179688	1562.099243164063	-839.4270629882815	-119.4567184448242	1498.585083007813	-960.7371215820315	-91.70618438720705	1532.597412109375	-934.4833984375002	-49.64015960693361	1495.577026367188	-956.9644775390627	26.64018058776856	1495.859619140625	-944.7467041015627	31.18659210205079	1436.847412109375	-915.091247558594	296.6005249023438	1494.607055664063	-853.3109130859377	298.4141845703126	1521.888061523438	-929.6436157226565	396.5197753906251	1517.563232421875	-853.0994262695315	-277.3374938964844	1558.863159179688	-538.4984130859376	-129.9685668945313	1468.885009765625	-424.6602478027345	-104.9598388671875	1506.644897460938	-447.7924804687501	-60.73441696166994	1475.617553710938	-423.623260498047	6.852001190185549	1464.982421875	-428.6717529296876	15.47634220123291	1408.272583007813	-480.6881103515626	279.0704956054688	1490.86328125	-501.3167114257814	276.7965698242188	1501.570068359375	-418.4261779785157	371.0682373046876	1518.680908203125	-485.3155212402345	-359.8278503417969	1065.476806640625	-852.457946777344	-336.9935607910157	1040.177490234375	-617.7742919921876	-529.1810913085939	1148.618530273438	-698.2235107421876	-543.9650878906251	1120.963134765625	-727.1416015625001	-533.0358886718751	1114.749755859375	-670.9161376953126	-305.3575744628907	834.1016845703127	-935.0200195312502	-241.7767028808594	779.4425048828127	-929.2279052734377	-203.3338775634766	798.7313232421877	-902.218688964844	-241.050521850586	719.1886596679689	-920.9517822265627	-189.4201812744141	634.5746459960939	-911.398864746094	-164.43212890625	635.3744506835939	-783.7105712890627	-73.09463500976564	544.7576293945314	-877.7180786132815	-101.1332321166992	488.0009765625001	-934.4359130859377	-62.5995445251465	498.7349243164064	-912.1705322265627	-22.73288345336914	428.1386108398439	-889.8933715820315	20.07291603088379	225.7333374023438	-909.161071777344	39.39007568359376	249.9535064697266	-820.6692504882815	-15.44787883758545	167.1031036376953	-853.415466308594	188.5611724853516	257.4108886718751	-849.6875610351565	189.2025299072266	261.9194641113282	-896.5139160156252	152.038818359375	219.1146545410157	-946.3296508789065	-398.7772521972657	826.4287719726565	-554.4789428710939	-347.5931701660157	783.807312011719	-555.4886474609376	-315.4495849609376	791.8452758789065	-557.9143066406251	-352.0637207031251	703.3737182617189	-580.3363647460939	-302.8293762207032	537.6550292968751	-610.9147949218751	-271.1903381347657	542.3610839843751	-741.4765014648439	-272.9659423828126	346.8544616699219	-716.6756591796876	-320.5818176269532	267.9765625000001	-657.4456176757814	-286.7621765136719	260.1962890625001	-691.2312622070314	-303.7149353027344	221.9076690673829	-731.2854614257814	-377.2972717285157	119.5792846679688	-697.7556762695314	-344.3873596191407	144.6769409179688	-784.0598144531252	-444.542205810547	106.5273666381836	-763.9338378906251	-236.1324005126954	59.13206481933595	-770.804626464844	-230.5671539306641	60.62337875366212	-718.3185424804689	-282.4972839355469	31.07601356506348	-667.1914062500001	
776	3.875	-249.4096221923829	1765.873046875	-612.7144775390626	-402.4134216308595	1700.379760742188	-682.1276855468751	-242.418197631836	1776.1689453125	-754.5917968750001	-415.0368652343751	1571.731201171875	-703.7023315429689	-492.0918579101564	1276.448608398438	-698.0655517578126	-261.9778442382813	1504.301513671875	-689.1776123046876	-262.2392578125001	1563.263916015625	-839.434753417969	-120.2338638305664	1500.070434570313	-960.7483520507815	-92.12388610839845	1533.920043945313	-934.5191650390627	-50.32478713989259	1496.825439453125	-956.9356079101565	25.96257972717286	1496.90234375	-944.7438964843752	30.40731048583985	1438.109008789063	-915.0726318359377	296.0095825195313	1495.391235351563	-853.2326660156252	297.6217956542969	1522.596435546875	-929.3496704101565	396.7810058593751	1518.2880859375	-852.5328369140627	-277.9108886718751	1560.378295898438	-538.2520751953126	-130.2321014404297	1470.475219726563	-424.4690246582032	-105.4732513427735	1507.486694335938	-447.5951232910157	-61.02707290649415	1476.898193359375	-423.6033935546876	6.336294174194338	1466.390380859375	-428.5153808593751	15.09077835083008	1409.5	-480.662078857422	278.4717407226563	1491.633666992188	-501.2649536132814	276.4396667480469	1502.535278320313	-418.233123779297	370.8405456542969	1520.04541015625	-484.7548828125001	-359.7692260742188	1066.934204101563	-852.3795166015627	-336.7187500000001	1041.857299804688	-617.7746582031251	-529.0974121093751	1149.792846679688	-698.1526489257814	-543.6992797851564	1122.412109375	-727.0056762695314	-532.7869873046876	1115.703857421875	-670.8291015625001	-305.7897338867188	835.2980957031252	-934.934020996094	-241.9746704101563	780.6033325195315	-929.2657470703127	-203.2669525146485	799.3571777343752	-902.2359008789065	-241.3002929687501	720.3982543945314	-921.2924804687502	-190.0487823486328	635.4754638671876	-911.2529296875002	-165.2425079345703	636.4666748046876	-783.8088378906252	-74.01448822021486	545.2594604492189	-877.663024902344	-102.2682189941407	488.6934814453126	-934.3934326171877	-62.89191055297853	499.1668090820314	-912.2996826171877	-23.70749664306641	428.6564331054689	-889.8652343750002	18.6135368347168	226.1154479980469	-909.262390136719	38.10189819335938	250.1068572998047	-820.822692871094	-17.52633476257325	167.6569519042969	-853.4107055664065	186.8583068847657	257.3421020507813	-849.5054321289065	187.7314910888672	261.9132080078126	-896.5469360351565	150.2307586669922	219.061019897461	-946.316101074219	-399.3341064453126	827.7539062500002	-554.5360717773439	-348.1256103515626	784.8002929687502	-555.6317138671876	-316.0256042480469	792.507995605469	-558.0128173828126	-353.2723693847657	704.1987304687501	-580.1465454101564	-304.6531066894532	538.2066040039064	-610.7407226562501	-272.6274108886719	542.6771240234376	-741.2640991210939	-274.0544738769532	347.1824951171876	-716.3731079101564	-321.4082946777344	268.3001098632813	-657.3041992187501	-287.8946533203126	260.7064819335938	-690.8025512695314	-304.2619934082032	222.2585601806641	-730.9893188476564	-377.4239807128907	119.5506820678711	-697.6452026367189	-344.3568420410157	144.7396850585938	-783.774597167969	-444.5540161132814	106.5204544067383	-763.8361816406251	-236.1098785400391	59.21172332763673	-770.6577148437502	-230.5601654052735	60.60764312744142	-718.2326660156251	-282.4168090820313	31.08528518676759	-667.1396484375001	
